<svg width="359" height="176" viewBox="0 0 359 176" fill="none" xmlns="http://www.w3.org/2000/svg">
<g clip-path="url(#clip0)">
<rect width="360" height="176" fill="#2B6684"/>
<path d="M77.5498 48.4H90.0299V50.2H77.5498V48.4ZM82.8299 50.008H84.7499V64H82.8299V50.008ZM109.105 64V48.4H115.993C117.081 48.4 118.009 48.568 118.777 48.904C119.545 49.224 120.129 49.712 120.529 50.368C120.945 51.024 121.153 51.848 121.153 52.84C121.153 53.512 121.041 54.088 120.817 54.568C120.609 55.048 120.313 55.456 119.929 55.792C119.545 56.112 119.089 56.36 118.561 56.536C118.049 56.712 117.489 56.824 116.881 56.872L116.809 56.752C117.657 56.784 118.385 56.888 118.993 57.064C119.601 57.24 120.073 57.56 120.409 58.024C120.745 58.488 120.913 59.184 120.913 60.112V64H118.993V60.112C118.993 59.472 118.881 58.976 118.657 58.624C118.449 58.256 118.089 58 117.577 57.856C117.081 57.696 116.393 57.616 115.513 57.616H111.025V64H109.105ZM111.025 55.816H115.993C117.081 55.816 117.889 55.544 118.417 55C118.961 54.44 119.233 53.72 119.233 52.84C119.233 51.992 118.961 51.344 118.417 50.896C117.889 50.432 117.081 50.2 115.993 50.2H111.025V55.816ZM152.224 58V48.4H154.144V58C154.144 58.88 154.04 59.664 153.832 60.352C153.624 61.024 153.328 61.608 152.944 62.104C152.576 62.6 152.128 63.008 151.6 63.328C151.072 63.632 150.48 63.856 149.824 64C149.184 64.16 148.496 64.24 147.76 64.24C147.008 64.24 146.304 64.16 145.648 64C144.992 63.856 144.392 63.632 143.848 63.328C143.32 63.008 142.864 62.6 142.48 62.104C142.112 61.608 141.824 61.024 141.616 60.352C141.408 59.664 141.304 58.88 141.304 58V48.4H143.224V58C143.224 59.2 143.432 60.12 143.848 60.76C144.264 61.4 144.816 61.84 145.504 62.08C146.192 62.32 146.944 62.44 147.76 62.44C148.56 62.44 149.296 62.32 149.968 62.08C150.64 61.84 151.184 61.4 151.6 60.76C152.016 60.12 152.224 59.2 152.224 58ZM188.207 58.792C188.047 59.912 187.663 60.88 187.055 61.696C186.447 62.512 185.671 63.144 184.727 63.592C183.799 64.024 182.759 64.24 181.607 64.24C180.535 64.24 179.543 64.056 178.631 63.688C177.719 63.304 176.919 62.76 176.231 62.056C175.559 61.352 175.031 60.504 174.647 59.512C174.263 58.52 174.071 57.416 174.071 56.2C174.071 54.968 174.263 53.864 174.647 52.888C175.031 51.896 175.559 51.048 176.231 50.344C176.919 49.64 177.719 49.104 178.631 48.736C179.543 48.352 180.535 48.16 181.607 48.16C182.775 48.16 183.823 48.384 184.751 48.832C185.695 49.264 186.471 49.896 187.079 50.728C187.687 51.544 188.071 52.52 188.231 53.656H186.455C186.231 52.856 185.879 52.184 185.399 51.64C184.935 51.096 184.375 50.68 183.719 50.392C183.063 50.104 182.359 49.96 181.607 49.96C180.631 49.96 179.711 50.2 178.847 50.68C177.999 51.16 177.311 51.864 176.783 52.792C176.255 53.72 175.991 54.856 175.991 56.2C175.991 57.544 176.255 58.68 176.783 59.608C177.311 60.536 177.999 61.24 178.847 61.72C179.711 62.2 180.631 62.44 181.607 62.44C182.359 62.44 183.055 62.304 183.695 62.032C184.351 61.744 184.911 61.328 185.375 60.784C185.855 60.24 186.207 59.576 186.431 58.792H188.207ZM211.881 56.416V55.168L220.905 64H218.289L210.081 55.84L217.305 48.4H219.897L211.881 56.416ZM208.161 48.4H210.081V64H208.161V48.4ZM242.022 57.136V62.2H251.166V64H240.102V48.4H251.142V50.2H242.022V55.336H249.486V57.136H242.022ZM273.236 57.136V62.2H282.38V64H271.316V48.4H282.356V50.2H273.236V55.336H280.7V57.136H273.236Z" fill="white"/>
<path d="M77.5498 48.4V47.9H77.0498V48.4H77.5498ZM90.0299 48.4H90.5299V47.9H90.0299V48.4ZM90.0299 50.2V50.7H90.5299V50.2H90.0299ZM77.5498 50.2H77.0498V50.7H77.5498V50.2ZM82.8299 50.008V49.508H82.3299V50.008H82.8299ZM84.7499 50.008H85.2499V49.508H84.7499V50.008ZM84.7499 64V64.5H85.2499V64H84.7499ZM82.8299 64H82.3299V64.5H82.8299V64ZM77.5498 48.9H90.0299V47.9H77.5498V48.9ZM89.5299 48.4V50.2H90.5299V48.4H89.5299ZM90.0299 49.7H77.5498V50.7H90.0299V49.7ZM78.0498 50.2V48.4H77.0498V50.2H78.0498ZM82.8299 50.508H84.7499V49.508H82.8299V50.508ZM84.2499 50.008V64H85.2499V50.008H84.2499ZM84.7499 63.5H82.8299V64.5H84.7499V63.5ZM83.3299 64V50.008H82.3299V64H83.3299ZM109.105 64H108.605V64.5H109.105V64ZM109.105 48.4V47.9H108.605V48.4H109.105ZM118.777 48.904L118.577 49.3621L118.585 49.3655L118.777 48.904ZM120.529 50.368L120.102 50.6283L120.107 50.6358L120.529 50.368ZM120.817 54.568L120.364 54.3565L120.358 54.3692L120.817 54.568ZM119.929 55.792L120.249 56.1762L120.258 56.1683L119.929 55.792ZM118.561 56.536L118.403 56.0616L118.399 56.0632L118.561 56.536ZM116.881 56.872L116.452 57.1292L116.612 57.3948L116.921 57.3704L116.881 56.872ZM116.809 56.752L116.828 56.2524L115.905 56.2175L116.38 57.0092L116.809 56.752ZM118.993 57.064L118.854 57.5443L118.993 57.064ZM120.409 58.024L120.004 58.3173H120.004L120.409 58.024ZM120.913 64V64.5H121.413V64H120.913ZM118.993 64H118.493V64.5H118.993V64ZM118.657 58.624L118.222 58.87L118.228 58.8814L118.235 58.8924L118.657 58.624ZM117.577 57.856L117.424 58.3319L117.433 58.3348L117.442 58.3373L117.577 57.856ZM111.025 57.616V57.116H110.525V57.616H111.025ZM111.025 64V64.5H111.525V64H111.025ZM111.025 55.816H110.525V56.316H111.025V55.816ZM118.417 55L118.059 54.6516L118.058 54.6518L118.417 55ZM118.417 50.896L118.087 51.2716L118.093 51.2769L118.099 51.282L118.417 50.896ZM111.025 50.2V49.7H110.525V50.2H111.025ZM109.605 64V48.4H108.605V64H109.605ZM109.105 48.9H115.993V47.9H109.105V48.9ZM115.993 48.9C117.032 48.9 117.888 49.0606 118.577 49.3621L118.978 48.4459C118.131 48.0754 117.13 47.9 115.993 47.9V48.9ZM118.585 49.3655C119.264 49.6485 119.762 50.0701 120.102 50.6283L120.956 50.1077C120.496 49.3539 119.826 48.7995 118.969 48.4425L118.585 49.3655ZM120.107 50.6358C120.46 51.1923 120.653 51.9168 120.653 52.84H121.653C121.653 51.7792 121.431 50.8557 120.951 50.1002L120.107 50.6358ZM120.653 52.84C120.653 53.4579 120.55 53.9581 120.364 54.3566L121.27 54.7794C121.532 54.2179 121.653 53.5661 121.653 52.84H120.653ZM120.358 54.3692C120.179 54.7829 119.927 55.1298 119.6 55.4157L120.258 56.1683C120.7 55.7822 121.039 55.3131 121.276 54.7668L120.358 54.3692ZM119.609 55.4079C119.278 55.6837 118.879 55.9031 118.403 56.0617L118.719 57.0103C119.3 56.8169 119.812 56.5403 120.249 56.1761L119.609 55.4079ZM118.399 56.0632C117.931 56.2239 117.413 56.3285 116.842 56.3736L116.921 57.3704C117.565 57.3195 118.167 57.2001 118.724 57.0088L118.399 56.0632ZM117.31 56.6148L117.238 56.4948L116.38 57.0092L116.452 57.1292L117.31 56.6148ZM116.79 57.2516C117.61 57.2826 118.296 57.3827 118.854 57.5443L119.132 56.5837C118.474 56.3933 117.704 56.2854 116.828 56.2524L116.79 57.2516ZM118.854 57.5443C119.367 57.6927 119.74 57.953 120.004 58.3173L120.814 57.7307C120.406 57.167 119.835 56.7873 119.132 56.5837L118.854 57.5443ZM120.004 58.3173C120.251 58.6577 120.413 59.2294 120.413 60.112H121.413C121.413 59.1386 121.24 58.3183 120.814 57.7307L120.004 58.3173ZM120.413 60.112V64H121.413V60.112H120.413ZM120.913 63.5H118.993V64.5H120.913V63.5ZM119.493 64V60.112H118.493V64H119.493ZM119.493 60.112C119.493 59.4239 119.374 58.8199 119.079 58.3556L118.235 58.8924C118.388 59.1321 118.493 59.5201 118.493 60.112H119.493ZM119.092 58.378C118.804 57.8671 118.317 57.5447 117.713 57.3747L117.442 58.3373C117.861 58.4553 118.095 58.6449 118.222 58.87L119.092 58.378ZM117.731 57.3801C117.163 57.1969 116.415 57.116 115.513 57.116V58.116C116.372 58.116 117 58.1951 117.424 58.3319L117.731 57.3801ZM115.513 57.116H111.025V58.116H115.513V57.116ZM110.525 57.616V64H111.525V57.616H110.525ZM111.025 63.5H109.105V64.5H111.025V63.5ZM111.025 56.316H115.993V55.316H111.025V56.316ZM115.993 56.316C117.157 56.316 118.119 56.0249 118.776 55.3482L118.058 54.6518C117.659 55.0631 117.005 55.316 115.993 55.316V56.316ZM118.776 55.3484C119.422 54.6829 119.733 53.8321 119.733 52.84H118.733C118.733 53.6079 118.5 54.1971 118.059 54.6516L118.776 55.3484ZM119.733 52.84C119.733 51.8761 119.418 51.0725 118.735 50.51L118.099 51.282C118.504 51.6155 118.733 52.1079 118.733 52.84H119.733ZM118.747 50.5204C118.089 49.9423 117.139 49.7 115.993 49.7V50.7C117.023 50.7 117.689 50.9217 118.087 51.2716L118.747 50.5204ZM115.993 49.7H111.025V50.7H115.993V49.7ZM110.525 50.2V55.816H111.525V50.2H110.525ZM152.224 48.4V47.9H151.724V48.4H152.224ZM154.144 48.4H154.644V47.9H154.144V48.4ZM153.832 60.352L154.309 60.4998L154.31 60.4967L153.832 60.352ZM152.944 62.104L152.548 61.7978L152.542 61.8061L152.944 62.104ZM151.6 63.328L151.849 63.7614L151.859 63.7556L151.6 63.328ZM149.824 64L149.716 63.5116L149.709 63.5132L149.702 63.5149L149.824 64ZM145.648 64L145.766 63.5141L145.755 63.5116L145.648 64ZM143.848 63.328L143.588 63.7556L143.596 63.7602L143.604 63.7645L143.848 63.328ZM142.48 62.104L142.078 62.402L142.084 62.4101L142.48 62.104ZM141.616 60.352L141.137 60.4967L141.138 60.4998L141.616 60.352ZM141.304 48.4V47.9H140.804V48.4H141.304ZM143.224 48.4H143.724V47.9H143.224V48.4ZM143.848 60.76L143.428 61.0325L143.848 60.76ZM145.504 62.08L145.668 61.6079L145.504 62.08ZM151.6 60.76L151.18 60.4875L151.6 60.76ZM152.724 58V48.4H151.724V58H152.724ZM152.224 48.9H154.144V47.9H152.224V48.9ZM153.644 48.4V58H154.644V48.4H153.644ZM153.644 58C153.644 58.8415 153.544 59.5754 153.353 60.2073L154.31 60.4967C154.535 59.7526 154.644 58.9185 154.644 58H153.644ZM153.354 60.2042C153.162 60.8258 152.891 61.3547 152.548 61.7979L153.339 62.4101C153.764 61.8613 154.086 61.2222 154.309 60.4998L153.354 60.2042ZM152.542 61.8061C152.213 62.25 151.813 62.614 151.34 62.9004L151.859 63.7556C152.442 63.402 152.939 62.9499 153.345 62.4019L152.542 61.8061ZM151.35 62.8947C150.871 63.1707 150.328 63.3775 149.716 63.5116L149.931 64.4884C150.632 64.3345 151.272 64.0933 151.849 63.7613L151.35 62.8947ZM149.702 63.5149C149.106 63.6639 148.459 63.74 147.76 63.74V64.74C148.532 64.74 149.261 64.6561 149.945 64.4851L149.702 63.5149ZM147.76 63.74C147.043 63.74 146.379 63.6638 145.766 63.5142L145.529 64.4858C146.228 64.6562 146.972 64.74 147.76 64.74V63.74ZM145.755 63.5116C145.143 63.3773 144.59 63.1698 144.092 62.8915L143.604 63.7645C144.194 64.0942 144.84 64.3347 145.54 64.4884L145.755 63.5116ZM144.107 62.9004C143.632 62.6127 143.222 62.2462 142.875 61.7979L142.084 62.4101C142.505 62.9538 143.007 63.4033 143.588 63.7556L144.107 62.9004ZM142.881 61.8061C142.551 61.3613 142.287 60.8296 142.093 60.2042L141.138 60.4998C141.36 61.2184 141.672 61.8547 142.078 62.4019L142.881 61.8061ZM142.094 60.2073C141.903 59.5754 141.804 58.8415 141.804 58H140.804C140.804 58.9185 140.912 59.7526 141.137 60.4967L142.094 60.2073ZM141.804 58V48.4H140.804V58H141.804ZM141.304 48.9H143.224V47.9H141.304V48.9ZM142.724 48.4V58H143.724V48.4H142.724ZM142.724 58C142.724 59.2459 142.938 60.2773 143.428 61.0325L144.267 60.4875C143.926 59.9627 143.724 59.1541 143.724 58H142.724ZM143.428 61.0325C143.902 61.7606 144.541 62.2738 145.339 62.5521L145.668 61.6079C145.09 61.4062 144.626 61.0394 144.267 60.4875L143.428 61.0325ZM145.339 62.5521C146.086 62.8126 146.894 62.94 147.76 62.94V61.94C146.993 61.94 146.297 61.8274 145.668 61.6079L145.339 62.5521ZM147.76 62.94C148.61 62.94 149.404 62.8123 150.136 62.5509L149.799 61.6091C149.188 61.8277 148.509 61.94 147.76 61.94V62.94ZM150.136 62.5509C150.918 62.2714 151.548 61.7575 152.019 61.0325L151.18 60.4875C150.82 61.0425 150.361 61.4086 149.799 61.6091L150.136 62.5509ZM152.019 61.0325C152.51 60.2773 152.724 59.2459 152.724 58H151.724C151.724 59.1541 151.521 59.9627 151.18 60.4875L152.019 61.0325ZM188.207 58.792L188.702 58.8627L188.784 58.292H188.207V58.792ZM184.727 63.592L184.938 64.0453L184.941 64.0437L184.727 63.592ZM178.631 63.688L178.437 64.1489L178.444 64.1517L178.631 63.688ZM176.231 62.056L175.869 62.4013L175.873 62.4055L176.231 62.056ZM174.647 59.512L174.181 59.6925L174.647 59.512ZM174.647 52.888L175.112 53.0711L175.113 53.0685L174.647 52.888ZM176.231 50.344L175.873 49.9945L175.869 49.9988L176.231 50.344ZM178.631 48.736L178.818 49.1997L178.825 49.1968L178.631 48.736ZM184.751 48.832L184.534 49.2824L184.543 49.2867L184.751 48.832ZM187.079 50.728L186.675 51.023L186.678 51.0267L187.079 50.728ZM188.231 53.656V54.156H188.806L188.726 53.5863L188.231 53.656ZM186.455 53.656L185.974 53.7908L186.076 54.156H186.455V53.656ZM185.399 51.64L185.019 51.9645L185.024 51.9708L185.399 51.64ZM178.847 50.68L178.604 50.2429L178.601 50.2449L178.847 50.68ZM176.783 52.792L177.218 53.0393L176.783 52.792ZM176.783 59.608L176.349 59.8553V59.8553L176.783 59.608ZM178.847 61.72L178.601 62.1551L178.604 62.1571L178.847 61.72ZM183.695 62.032L183.891 62.4922L183.896 62.4898L183.695 62.032ZM185.375 60.784L185 60.4531L184.995 60.4595L185.375 60.784ZM186.431 58.792V58.292H186.054L185.95 58.6546L186.431 58.792ZM187.712 58.7213C187.563 59.768 187.207 60.6555 186.654 61.3973L187.456 61.9947C188.119 61.1045 188.532 60.056 188.702 58.8627L187.712 58.7213ZM186.654 61.3973C186.096 62.146 185.385 62.7263 184.513 63.1403L184.941 64.0437C185.957 63.5617 186.798 62.878 187.456 61.9947L186.654 61.3973ZM184.516 63.1387C183.662 63.5363 182.695 63.74 181.607 63.74V64.74C182.823 64.74 183.936 64.5117 184.938 64.0453L184.516 63.1387ZM181.607 63.74C180.593 63.74 179.666 63.5663 178.818 63.2243L178.444 64.1517C179.421 64.5457 180.477 64.74 181.607 64.74V63.74ZM178.825 63.2272C177.974 62.8689 177.23 62.3626 176.589 61.7065L175.873 62.4055C176.608 63.1574 177.464 63.7391 178.437 64.1488L178.825 63.2272ZM176.593 61.7108C175.97 61.0585 175.476 60.268 175.113 59.3315L174.181 59.6925C174.586 60.74 175.148 61.6455 175.869 62.4012L176.593 61.7108ZM175.113 59.3315C174.755 58.4047 174.571 57.363 174.571 56.2H173.571C173.571 57.469 173.772 58.6353 174.181 59.6925L175.113 59.3315ZM174.571 56.2C174.571 55.0199 174.755 53.9795 175.112 53.0711L174.182 52.7049C173.771 53.7485 173.571 54.9161 173.571 56.2H174.571ZM175.113 53.0685C175.476 52.132 175.97 51.3415 176.593 50.6892L175.869 49.9988C175.148 50.7545 174.586 51.66 174.181 52.7075L175.113 53.0685ZM176.589 50.6935C177.228 50.0389 177.97 49.5418 178.818 49.1997L178.444 48.2723C177.468 48.6662 176.61 49.2411 175.873 49.9945L176.589 50.6935ZM178.825 49.1968C179.671 48.8408 180.596 48.66 181.607 48.66V47.66C180.474 47.66 179.415 47.8632 178.437 48.2752L178.825 49.1968ZM181.607 48.66C182.71 48.66 183.682 48.8711 184.534 49.2823L184.968 48.3817C183.964 47.8969 182.84 47.66 181.607 47.66V48.66ZM184.543 49.2867C185.41 49.6833 186.118 50.2606 186.675 51.023L187.483 50.433C186.824 49.5314 185.98 48.8447 184.959 48.3773L184.543 49.2867ZM186.678 51.0267C187.23 51.7673 187.586 52.662 187.736 53.7257L188.726 53.5863C188.556 52.378 188.144 51.3207 187.48 50.4293L186.678 51.0267ZM188.231 53.156H186.455V54.156H188.231V53.156ZM186.937 53.5212C186.695 52.6592 186.311 51.9173 185.774 51.3092L185.024 51.9708C185.448 52.4507 185.767 53.0528 185.974 53.7908L186.937 53.5212ZM185.78 51.3155C185.266 50.714 184.645 50.2525 183.92 49.9342L183.518 50.8498C184.105 51.1075 184.604 51.478 185.019 51.9645L185.78 51.3155ZM183.92 49.9342C183.198 49.617 182.425 49.46 181.607 49.46V50.46C182.293 50.46 182.929 50.591 183.518 50.8498L183.92 49.9342ZM181.607 49.46C180.545 49.46 179.542 49.7222 178.604 50.2429L179.09 51.1171C179.881 50.6778 180.717 50.46 181.607 50.46V49.46ZM178.601 50.2449C177.667 50.7735 176.917 51.546 176.349 52.5447L177.218 53.0393C177.705 52.182 178.331 51.5465 179.093 51.1151L178.601 50.2449ZM176.349 52.5447C175.768 53.5652 175.491 54.7914 175.491 56.2H176.491C176.491 54.9206 176.742 53.8748 177.218 53.0393L176.349 52.5447ZM175.491 56.2C175.491 57.6086 175.768 58.8348 176.349 59.8553L177.218 59.3607C176.742 58.5252 176.491 57.4794 176.491 56.2H175.491ZM176.349 59.8553C176.917 60.854 177.667 61.6265 178.601 62.1551L179.093 61.2849C178.331 60.8535 177.705 60.218 177.218 59.3607L176.349 59.8553ZM178.604 62.1571C179.542 62.6778 180.545 62.94 181.607 62.94V61.94C180.717 61.94 179.881 61.7222 179.09 61.2829L178.604 62.1571ZM181.607 62.94C182.421 62.94 183.184 62.7925 183.891 62.4922L183.5 61.5718C182.926 61.8155 182.297 61.94 181.607 61.94V62.94ZM183.896 62.4898C184.621 62.1715 185.242 61.71 185.756 61.1085L184.995 60.4595C184.58 60.946 184.081 61.3165 183.494 61.5742L183.896 62.4898ZM185.75 61.1148C186.285 60.5084 186.67 59.776 186.912 58.9294L185.95 58.6546C185.744 59.376 185.425 59.9716 185 60.4532L185.75 61.1148ZM186.431 59.292H188.207V58.292H186.431V59.292ZM211.881 56.416H211.381V57.6231L212.235 56.7696L211.881 56.416ZM211.881 55.168L212.231 54.8107L211.381 53.979V55.168H211.881ZM220.905 64V64.5H222.131L221.255 63.6427L220.905 64ZM218.289 64L217.937 64.3546L218.083 64.5H218.289V64ZM210.081 55.84L209.723 55.4917L209.378 55.8462L209.729 56.1946L210.081 55.84ZM217.305 48.4V47.9H217.094L216.947 48.0517L217.305 48.4ZM219.897 48.4L220.251 48.7536L221.105 47.9H219.897V48.4ZM208.161 48.4V47.9H207.661V48.4H208.161ZM210.081 48.4H210.581V47.9H210.081V48.4ZM210.081 64V64.5H210.581V64H210.081ZM208.161 64H207.661V64.5H208.161V64ZM212.381 56.416V55.168H211.381V56.416H212.381ZM211.532 55.5253L220.556 64.3573L221.255 63.6427L212.231 54.8107L211.532 55.5253ZM220.905 63.5H218.289V64.5H220.905V63.5ZM218.642 63.6454L210.434 55.4854L209.729 56.1946L217.937 64.3546L218.642 63.6454ZM210.44 56.1883L217.664 48.7483L216.947 48.0517L209.723 55.4917L210.44 56.1883ZM217.305 48.9H219.897V47.9H217.305V48.9ZM219.544 48.0464L211.528 56.0624L212.235 56.7696L220.251 48.7536L219.544 48.0464ZM208.161 48.9H210.081V47.9H208.161V48.9ZM209.581 48.4V64H210.581V48.4H209.581ZM210.081 63.5H208.161V64.5H210.081V63.5ZM208.661 64V48.4H207.661V64H208.661ZM242.022 57.136V56.636H241.522V57.136H242.022ZM242.022 62.2H241.522V62.7H242.022V62.2ZM251.166 62.2H251.666V61.7H251.166V62.2ZM251.166 64V64.5H251.666V64H251.166ZM240.102 64H239.602V64.5H240.102V64ZM240.102 48.4V47.9H239.602V48.4H240.102ZM251.142 48.4H251.642V47.9H251.142V48.4ZM251.142 50.2V50.7H251.642V50.2H251.142ZM242.022 50.2V49.7H241.522V50.2H242.022ZM242.022 55.336H241.522V55.836H242.022V55.336ZM249.486 55.336H249.986V54.836H249.486V55.336ZM249.486 57.136V57.636H249.986V57.136H249.486ZM241.522 57.136V62.2H242.522V57.136H241.522ZM242.022 62.7H251.166V61.7H242.022V62.7ZM250.666 62.2V64H251.666V62.2H250.666ZM251.166 63.5H240.102V64.5H251.166V63.5ZM240.602 64V48.4H239.602V64H240.602ZM240.102 48.9H251.142V47.9H240.102V48.9ZM250.642 48.4V50.2H251.642V48.4H250.642ZM251.142 49.7H242.022V50.7H251.142V49.7ZM241.522 50.2V55.336H242.522V50.2H241.522ZM242.022 55.836H249.486V54.836H242.022V55.836ZM248.986 55.336V57.136H249.986V55.336H248.986ZM249.486 56.636H242.022V57.636H249.486V56.636ZM273.236 57.136V56.636H272.736V57.136H273.236ZM273.236 62.2H272.736V62.7H273.236V62.2ZM282.38 62.2H282.88V61.7H282.38V62.2ZM282.38 64V64.5H282.88V64H282.38ZM271.316 64H270.816V64.5H271.316V64ZM271.316 48.4V47.9H270.816V48.4H271.316ZM282.356 48.4H282.856V47.9H282.356V48.4ZM282.356 50.2V50.7H282.856V50.2H282.356ZM273.236 50.2V49.7H272.736V50.2H273.236ZM273.236 55.336H272.736V55.836H273.236V55.336ZM280.7 55.336H281.2V54.836H280.7V55.336ZM280.7 57.136V57.636H281.2V57.136H280.7ZM272.736 57.136V62.2H273.736V57.136H272.736ZM273.236 62.7H282.38V61.7H273.236V62.7ZM281.88 62.2V64H282.88V62.2H281.88ZM282.38 63.5H271.316V64.5H282.38V63.5ZM271.816 64V48.4H270.816V64H271.816ZM271.316 48.9H282.356V47.9H271.316V48.9ZM281.856 48.4V50.2H282.856V48.4H281.856ZM282.356 49.7H273.236V50.7H282.356V49.7ZM272.736 50.2V55.336H273.736V50.2H272.736ZM273.236 55.836H280.7V54.836H273.236V55.836ZM280.2 55.336V57.136H281.2V55.336H280.2ZM280.7 56.636H273.236V57.636H280.7V56.636Z" fill="white"/>
<path opacity="0.15" d="M176 24C176 63.7645 143.765 96 104 96C64.2355 96 32 63.7645 32 24C32 -15.7645 64.2355 -48 104 -48C143.765 -48 176 -15.7645 176 24ZM64.4 24C64.4 45.8705 82.1295 63.6 104 63.6C125.87 63.6 143.6 45.8705 143.6 24C143.6 2.12952 125.87 -15.6 104 -15.6C82.1295 -15.6 64.4 2.12952 64.4 24Z" fill="white"/>
<path opacity="0.15" d="M408 176C408 215.765 375.765 248 336 248C296.235 248 264 215.765 264 176C264 136.235 296.235 104 336 104C375.765 104 408 136.235 408 176ZM296.4 176C296.4 197.87 314.13 215.6 336 215.6C357.87 215.6 375.6 197.87 375.6 176C375.6 154.13 357.87 136.4 336 136.4C314.13 136.4 296.4 154.13 296.4 176Z" fill="white"/>
</g>
<defs>
<clipPath id="clip0">
<rect width="360" height="176" fill="white"/>
</clipPath>
</defs>
</svg>
